<?xml version="1.0" encoding="UTF-8" standalone="no"?>
<!-- Created with Inkscape (http://www.inkscape.org/) -->

<svg
   xmlns:dc="http://purl.org/dc/elements/1.1/"
   xmlns:cc="http://creativecommons.org/ns#"
   xmlns:rdf="http://www.w3.org/1999/02/22-rdf-syntax-ns#"
   xmlns:svg="http://www.w3.org/2000/svg"
   xmlns="http://www.w3.org/2000/svg"
   xmlns:xlink="http://www.w3.org/1999/xlink"
   xmlns:sodipodi="http://sodipodi.sourceforge.net/DTD/sodipodi-0.dtd"
   xmlns:inkscape="http://www.inkscape.org/namespaces/inkscape"
   version="1s.1"
   id="svg4535"
   width="80"
   height="80"
   viewBox="0 0 240 240"
   sodipodi:docname="krakenbenchmark2.svg"
   inkscape:export-filename="C:\Users\achague.DESKTOP-5OQDO79\Pictures\timeus_logos\krakenbenchmark.png"
   inkscape:export-xdpi="299"
   inkscape:export-ydpi="299"
   inkscape:version="0.92.2 (5c3e80d, 2017-08-06)">
  <metadata
     id="metadata4541">
    <rdf:RDF>
      <cc:Work
         rdf:about="">
        <dc:format>image/svg+xml</dc:format>
        <dc:type
           rdf:resource="http://purl.org/dc/dcmitype/StillImage" />
        <dc:title></dc:title>
      </cc:Work>
    </rdf:RDF>
  </metadata>
  <defs
     id="defs4539">
    <linearGradient
       inkscape:collect="always"
       id="linearGradient871-8">
      <stop
         style="stop-color:#f9f9f9;stop-opacity:1"
         offset="0"
         id="stop867" />
      <stop
         style="stop-color:#4d4d4d;stop-opacity:1"
         offset="1"
         id="stop869" />
    </linearGradient>
    <clipPath
       clipPathUnits="userSpaceOnUse"
       id="clipPath974">
      <circle
         style="opacity:1;fill:#abc837;fill-opacity:1;fill-rule:nonzero;stroke:#782121;stroke-width:4;stroke-linecap:butt;stroke-linejoin:miter;stroke-miterlimit:4;stroke-dasharray:none;stroke-opacity:1"
         id="circle976"
         cx="651.54694"
         cy="53.154251"
         r="130.76904" />
    </clipPath>
    <linearGradient
       inkscape:collect="always"
       xlink:href="#linearGradient871-8"
       id="linearGradient875"
       gradientUnits="userSpaceOnUse"
       x1="77.81958"
       y1="54.671345"
       x2="303.56332"
       y2="197.35432" />
    <filter
       inkscape:collect="always"
       style="color-interpolation-filters:sRGB"
       id="filter902"
       x="-0.023978005"
       width="1.047956"
       y="-0.29938706"
       height="1.5987741">
      <feGaussianBlur
         inkscape:collect="always"
         stdDeviation="2.1211711"
         id="feGaussianBlur904" />
    </filter>
    <filter
       inkscape:collect="always"
       style="color-interpolation-filters:sRGB"
       id="filter920"
       x="-0.053373659"
       width="1.1067473"
       y="-0.043609406"
       height="1.0872188">
      <feGaussianBlur
         inkscape:collect="always"
         stdDeviation="1.3164456"
         id="feGaussianBlur922" />
    </filter>
  </defs>
  <sodipodi:namedview
     pagecolor="#ffffff"
     bordercolor="#666666"
     borderopacity="1"
     objecttolerance="10"
     gridtolerance="10"
     guidetolerance="10"
     inkscape:pageopacity="0"
     inkscape:pageshadow="2"
     inkscape:window-width="1920"
     inkscape:window-height="986"
     id="namedview4537"
     showgrid="false"
     inkscape:zoom="3.2875"
     inkscape:cx="120"
     inkscape:cy="120"
     inkscape:window-x="-11"
     inkscape:window-y="-11"
     inkscape:window-maximized="1"
     inkscape:current-layer="svg4535"
     showguides="true"
     inkscape:guide-bbox="true">
    <sodipodi:guide
       position="55.617061,246.82944"
       orientation="1,0"
       id="guide850"
       inkscape:locked="false" />
    <sodipodi:guide
       position="185.23699,214.65428"
       orientation="1,0"
       id="guide852"
       inkscape:locked="false" />
    <sodipodi:guide
       position="360.82143,191.67202"
       orientation="0,1"
       id="guide1022"
       inkscape:locked="false" />
    <sodipodi:guide
       position="1546.2462,191.67202"
       orientation="1,0"
       id="guide1146"
       inkscape:locked="false" />
    <sodipodi:guide
       position="1596.8072,243.61192"
       orientation="-0.70710678,0.70710678"
       id="guide1148"
       inkscape:locked="false" />
  </sodipodi:namedview>
  <circle
     r="107.50908"
     cy="120"
     cx="120"
     id="circle865"
     style="opacity:1;fill:#cccccc;fill-opacity:1;fill-rule:nonzero;stroke:none;stroke-width:11.33858299;stroke-linecap:butt;stroke-linejoin:miter;stroke-miterlimit:4;stroke-dasharray:none;stroke-opacity:1" />
  <circle
     style="opacity:1;fill:url(#linearGradient875);fill-opacity:1;fill-rule:nonzero;stroke:none;stroke-width:11.33858299;stroke-linecap:butt;stroke-linejoin:miter;stroke-miterlimit:4;stroke-dasharray:none;stroke-opacity:1"
     id="path5141"
     cx="120"
     cy="120"
     r="107.50908" />
  <path
     id="path906"
     pointer-events="all"
     d="m 169.82622,53.39824 -45.22977,72.1175 c -9.14823,2.00982 -14.07037,-5.45849 -13.96383,-13.0486 z"
     inkscape:connector-curvature="0"
     style="fill:#0b280b;fill-opacity:1;stroke:#0b2817;stroke-width:2.64566929;stroke-miterlimit:4;stroke-dasharray:none;stroke-opacity:1;filter:url(#filter920)" />
  <path
     style="fill:none;stroke:#000000;stroke-width:1.88976378;stroke-linecap:butt;stroke-linejoin:miter;stroke-opacity:1;stroke-miterlimit:4;stroke-dasharray:none;filter:url(#filter902)"
     d="M 13.84416,137.00411 120,120 226.15584,137.00411"
     id="path884"
     inkscape:connector-curvature="0"
     sodipodi:nodetypes="ccc" />
  <path
     id="circle1182"
     style="opacity:1;fill:#008033;fill-opacity:1;fill-rule:nonzero;stroke:none;stroke-width:11.33858299;stroke-linecap:butt;stroke-linejoin:miter;stroke-miterlimit:4;stroke-dasharray:none;stroke-opacity:1"
     transform="scale(-1,1)"
     sodipodi:type="arc"
     sodipodi:cx="-120"
     sodipodi:cy="120"
     sodipodi:rx="107.50908"
     sodipodi:ry="107.50908"
     sodipodi:start="4.1617667"
     sodipodi:end="5.2786699"
     d="m -176.25065,28.38086 a 107.50908,107.50908 0 0 1 113.928973,0.892004 L -120,120 Z" />
  <path
     id="circle1180"
     style="opacity:1;fill:#005522;fill-opacity:1;fill-rule:nonzero;stroke:none;stroke-width:11.33858299;stroke-linecap:butt;stroke-linejoin:miter;stroke-miterlimit:4;stroke-dasharray:none;stroke-opacity:1"
     sodipodi:type="arc"
     sodipodi:cx="120"
     sodipodi:cy="120"
     sodipodi:rx="107.50908"
     sodipodi:ry="107.50908"
     sodipodi:start="2.9827613"
     sodipodi:end="4.1991211"
     d="M 13.84416,137.00411 A 107.50908,107.50908 0 0 1 67.210176,26.344052 L 120,120 Z" />
  <path
     d="M -226.15584,137.00411 A 107.50908,107.50908 0 0 1 -172.78982,26.344052 L -120,120 Z"
     sodipodi:end="4.1991211"
     sodipodi:start="2.9827613"
     sodipodi:ry="107.50908"
     sodipodi:rx="107.50908"
     sodipodi:cy="120"
     sodipodi:cx="-120"
     sodipodi:type="arc"
     style="opacity:1;fill:#00aa44;fill-opacity:1;fill-rule:nonzero;stroke:none;stroke-width:11.33858299;stroke-linecap:butt;stroke-linejoin:miter;stroke-miterlimit:4;stroke-dasharray:none;stroke-opacity:1"
     id="path1184"
     transform="scale(-1,1)" />
  <path
     inkscape:connector-curvature="0"
     id="path5129"
     d="m 97.019277,217.45415 c -1.068416,0.31561 -4.194001,-2.51048 -4.925367,-3.16898 -3.562512,-3.20754 -3.946117,-8.2735 -1.565838,-12.82699 l 0.706385,-3.7604 -3.491242,-0.13379 c -3.230401,-0.12379 -5.190568,-1.45549 -8.061647,-3.02343 -1.623241,-0.88647 -3.264862,-1.61627 -3.648044,-1.62177 -1.580558,-0.0227 -0.494362,1.47574 2.193966,3.02662 3.605367,2.07993 4.63999,4.33837 2.700262,5.8943 -1.729996,1.38769 -4.844328,-0.60586 -7.208025,-2.05297 -1.977172,-1.21048 -2.544381,-3.16765 -2.544381,-5.3709 0,-2.06177 0.302449,-3.03416 2.259249,-4.02729 2.320335,-1.17764 3.641656,-4.53165 3.10013,-6.40209 -0.767527,-2.65105 0.73227,-9.49204 1.186893,-12.94512 0.362108,-2.7504 -2.72697,-4.38279 -3.616168,-6.1302 -1.395282,-2.74192 -1.027935,-2.65298 0.78164,-5.55341 2.463291,-3.94821 4.929552,-4.04371 8.167143,-1.34507 3.298236,2.74919 0.793556,0.43447 -2.062792,8.1896 -3.317571,9.00735 -1.144345,19.91163 3.777305,22.27176 2.766731,1.32676 9.36049,4.95046 13.737146,4.02182 5.578418,-1.18363 14.534158,-16.3217 13.747388,-22.55959 -0.32812,-2.60155 -3.50877,-5.32171 -6.34862,-7.75041 -5.13061,-4.3878 3.86481,-5.27121 5.13001,-13.02803 1.33912,-8.21001 -3.84236,-4.90099 2.89858,-8.1897 3.52002,-1.71731 -0.48191,-7.39064 5.94901,-7.39064 6.10894,0 4.51684,1.86247 7.43105,3.21542 6.2514,2.90228 5.58178,3.40688 7.22566,11.22667 1.21355,5.77276 0.54605,8.28782 -4.2888,13.81391 -2.42139,2.76756 4.72363,7.61512 4.72363,10.60976 0,8.04611 4.88987,14.98129 13.71466,14.94834 9.3778,-0.035 13.62031,-8.50483 7.88174,-19.8092 -3.11477,-6.13579 -3.10145,-6.33371 -1.34133,-9.19297 1.12359,-1.82522 0.71092,-0.4872 3.69192,-0.9664 2.61858,-0.42094 6.38583,-3.71173 7.80528,-1.40543 1.57242,2.55485 -0.60401,7.76284 -2.19372,10.34601 -1.13859,1.8501 -2.68691,2.01374 -1.84829,8.00566 0.552,3.94398 2.34467,7.05019 2.06094,8.74399 -0.4808,2.87027 -3.49743,6.29016 -0.98925,6.88349 2.18055,0.51583 10.59418,0.42257 10.97148,2.29134 0.48941,2.42404 -0.53019,5.21514 -2.85183,7.8067 -1.84459,2.05905 -2.44124,2.37117 -4.99783,2.61452 -3.32943,0.31691 -5.7081,-0.79915 -5.7081,-2.67821 0,-1.30259 2.29342,-3.65496 4.90024,-5.02618 1.79345,-0.94337 2.39539,-2.09819 1.09133,-2.09372 -0.38318,0.001 -2.62132,0.9673 -4.97364,2.14664 -2.35232,1.17933 -5.56937,2.47237 -7.14901,2.87341 -2.45923,0.62436 -2.83139,0.89117 -2.58909,1.8562 0.15564,0.61987 0.56081,2.22024 0.90038,3.55639 1.08912,4.28552 -0.82941,7.39219 -3.82362,10.12229 -2.53713,2.31334 -5.53113,3.92729 -8.94595,2.09543 -2.50535,-1.34399 -6.80769,-5.81874 -6.80769,-8.01157 0,-1.27404 0.20957,-1.94212 2.55311,-2.31885 1.6627,-0.26728 2.57344,0.0225 5.28927,1.68306 3.68911,2.25564 5.06345,2.51188 5.06345,0.94407 0,-2.76536 -5.34425,-6.66448 -10.89158,-7.94642 -4.13494,-0.95555 -6.67781,-2.19773 -9.03482,-4.4135 -1.77242,-1.66622 -1.33931,-2.51301 -6.06811,-2.36635 -4.59625,0.14255 -5.15045,1.26119 -7.25549,3.04608 -2.25872,1.91521 -4.75575,2.64274 -10.25869,4.13976 -1.70526,0.4639 -3.956579,1.41497 -5.002929,2.11347 -3.506509,2.34081 -5.378714,6.48883 -2.928744,6.48883 0.457455,0 2.306435,-0.90168 4.108848,-2.00373 2.644335,-1.61683 3.618875,-1.93602 5.047085,-1.65307 3.5091,0.69523 4.00452,2.0171 2.09781,5.59738 -2.9939,5.62173 -4.51576,5.12927 -9.472353,6.59346 z"
     style="fill:#00aa44;stroke-width:0.55472857;fill-opacity:1"
     sodipodi:nodetypes="scccsscsccsccccsssssssssssssscsscscscsscssccscscscsccsssssccsccss" />
  <path
     inkscape:connector-curvature="0"
     id="path5127"
     d="m 93.72954,217.65782 c -2.615137,-1.12837 -4.550423,-3.80863 -5.286661,-7.32172 -0.808817,-3.85942 -0.487769,-6.50999 1.192093,-9.84197 1.495048,-2.9654 -1.221521,-4.71505 -5.535448,-5.63432 -1.459991,-0.31111 -0.953093,-0.89711 -2.516312,-1.9623 -3.114566,-2.1223 -4.891463,-2.13611 -6.992156,-1.18797 -1.751565,0.79056 -1.853071,4.0775 -0.264448,6.07811 0.922473,1.16171 2.429398,1.92281 4.310961,1.92281 2.520314,0 3.693825,-0.42164 3.693825,1.1473 0,1.32114 -1.683122,2.11746 -4.475537,2.11746 -2.869491,0 -4.900102,-1.14417 -6.606143,-3.7223 -2.7622,-4.17416 -2.013578,-8.15587 1.94883,-10.36525 1.995381,-1.11261 2.118227,0.31507 2.021883,-3.36011 -0.0311,-1.18602 -0.204622,-5.50651 -0.278677,-9.60597 -0.109498,-6.06168 -0.316784,-7.70846 -1.110017,-8.81865 -1.449903,-2.02926 -1.305058,-6.95352 0.292572,-9.94628 1.571033,-2.94293 4.189954,-4.42388 7.82325,-4.42388 2.224085,0 2.978471,0.27683 4.287212,1.57327 2.903223,2.87593 2.839929,6.48846 -0.261371,14.91712 -1.933553,5.25498 -2.067954,10.21062 -0.35153,12.96174 2.121265,3.40001 6.951536,4.83513 12.460649,3.7022 7.182065,-1.47697 10.705295,-6.55334 9.389735,-13.52898 -0.40967,-2.17229 -0.98384,-3.02993 -3.53837,-5.28534 -2.02692,-1.78958 -3.47527,-3.67305 -4.319621,-5.61735 -4.453777,-10.25575 0.893071,-25.07034 10.778981,-29.86549 9.66696,-4.68894 21.4058,-2.41115 27.78404,5.39118 3.98375,4.8732 5.49821,9.39812 5.71357,15.19953 0.15258,4.11018 -0.20505,5.13652 -1.71547,8.28172 -0.94788,1.97381 -2.80591,4.79468 -4.12895,6.26859 -2.03454,2.26654 -2.44227,3.1187 -2.64375,5.52548 -0.47644,5.69109 1.86305,10.06522 6.46089,12.07994 3.27744,1.43614 10.21559,1.54267 12.82852,0.19698 4.36949,-2.25034 4.29652,-7.96836 -0.21171,-16.58888 -3.92198,-7.49951 -3.47252,-11.30598 1.60464,-13.58951 5.68071,-2.55497 11.41041,10e-4 12.34986,5.50936 0.45869,2.6894 -0.57601,6.68491 -2.0209,7.80378 -1.082,0.83786 -1.08687,0.9934 -0.22481,7.17749 0.60709,4.35503 0.72941,7.12357 0.39326,8.90117 -0.26834,1.41906 -0.15186,2.76926 -0.14983,3.11752 0.0104,1.78055 1.18698,1.30185 2.47586,1.64493 3.17328,0.84467 4.92361,2.4501 5.36262,4.76818 0.445,2.34982 -0.50702,5.3207 -2.95666,7.36256 -1.45311,1.21122 -2.07406,2.36213 -4.69864,2.2226 -2.19577,-0.11673 -3.24876,-0.43942 -3.68607,-1.12961 -1.03878,-1.63947 1.65291,-1.41001 4.74567,-1.72273 2.46659,-0.2494 2.80883,-1.89399 3.81224,-3.75034 1.05247,-1.94712 -2.45936,-4.22073 -3.37224,-5.12503 -1.45487,-1.44118 -0.65866,-0.38503 -2.99227,1.37817 -1.98356,1.49871 -7.89684,5.09761 -11.17162,5.87622 -1.83869,0.43717 -1.89953,0.41717 -0.61768,3.75779 1.80464,4.70304 -0.27146,9.62674 -3.54298,12.47216 -4.64384,4.03901 -10.54948,3.74046 -14.28434,-2.57267 -1.80071,-3.04378 -1.6313,-4.86564 0.47474,-5.10558 1.24192,-0.14149 1.72363,0.16349 2.50809,1.58789 2.53021,4.5943 5.6797,6.42921 8.48373,4.94266 2.51437,-1.333 3.65389,-7.25577 2.00405,-10.41621 -1.0534,-2.0179 -3.07906,-2.85636 -8.12345,-3.36246 -10.19294,-1.02266 -17.55949,-8.37679 -18.25618,-18.22541 -0.23559,-3.33044 0.3624,-8.32313 1.27594,-10.65289 0.3336,-0.85077 10e-4,-0.9662 -2.78378,-0.9662 -3.02741,0 -3.14544,0.0531 -2.76036,1.24226 2.23935,6.91513 1.57937,14.55983 -1.70145,19.70813 -3.10751,4.87632 -8.96087,8.25354 -15.42932,8.90226 -5.202505,0.52176 -8.268976,0.87692 -9.089257,3.20787 -1.307416,3.71519 0.09819,10.65348 2.507617,11.93084 2.804024,1.48656 6.60777,-0.38436 9.13797,-4.97866 0.78446,-1.4244 1.08444,-2.08943 2.32636,-1.94794 2.10604,0.23993 2.34814,1.08966 0.54743,4.13344 -3.1137,5.26317 -8.388173,7.55765 -12.89908,5.61129 z m 27.13358,-31.24605 c 0.61858,-8e-5 3.89576,6.20503 4.06344,7.3373 -1.2581,0.0851 -6.45683,-0.13929 -8.03301,-0.0713 0.84449,-1.64451 3.65605,-7.2659 3.96957,-7.26595 z"
     style="fill:#008033;stroke-width:0.55472857;fill-opacity:1"
     sodipodi:nodetypes="sssccscsssscsscsssssssscssssssscssccscscscscccssccsssccssscscssscsssssccs" />
  <path
     inkscape:connector-curvature="0"
     id="path5125"
     d="m 93.72954,217.65782 c -2.615137,-1.12837 -4.550423,-3.80863 -5.286661,-7.32173 -0.839783,-4.00718 -0.481248,-6.54711 1.460353,-10.3456 1.308519,-2.55995 1.973744,-3.22014 4.201029,-4.16928 1.538411,-0.65559 3.886463,-1.13279 5.608455,-1.13985 5.403704,-0.0221 10.903214,-3.36375 13.049044,-7.92892 1.45981,-3.10568 1.83799,-9.3902 0.78411,-13.03029 -0.65864,-2.27498 -0.30807,-3.67303 1.10947,-4.42455 2.3068,-1.22295 3.88297,0.60015 4.81494,6.55037 1.9568,12.49338 -5.87436,22.74684 -18.34637,23.84665 -6.692521,0.59016 -8.760129,2.01674 -8.760129,7.29566 0,3.39658 1.029278,6.11262 2.533072,6.68426 3.375564,1.28315 6.403517,-0.33385 8.595577,-4.59026 1.00973,-1.96062 1.41938,-2.28597 2.69468,-2.14016 2.071,0.23679 2.23037,2.07862 0.4415,5.1024 -3.1137,5.26318 -8.388169,7.55766 -12.89907,5.6113 z m 48.04663,-0.0288 c -2.62552,-0.92733 -4.4971,-2.60636 -6.31179,-5.6624 -1.74998,-2.94706 -1.57277,-4.78746 0.48361,-5.02257 1.27531,-0.14581 1.86668,-0.0725 2.87642,1.88813 2.19206,4.25641 4.74751,5.69338 8.12307,4.41023 1.5038,-0.57164 2.49672,-2.89162 2.49672,-6.2882 0,-5.27892 -1.70413,-6.56148 -8.39667,-7.15164 -12.35262,-1.08928 -20.23154,-11.29136 -18.44701,-23.75563 0.87035,-6.07906 2.53861,-7.99029 4.87925,-6.7494 1.41754,0.75151 1.7681,2.14957 1.10946,4.42454 -0.84489,2.91825 -0.67661,9.67561 0.29853,11.98749 2.28316,5.41299 6.81301,8.38943 13.67786,8.98733 5.77879,0.50331 8.22628,1.80598 9.9061,5.27254 3.43352,7.08553 1.23901,15.71171 -4.54808,17.87768 -2.03876,0.76305 -3.51814,0.71057 -6.14747,-0.2181 z M 73.955081,202.07861 c -1.947264,-1.1982 -3.962174,-4.40748 -4.290752,-6.83418 -0.343442,-2.53648 0.929423,-4.62005 2.641678,-6.24783 0.8328,-0.79171 2.221745,-1.33445 2.905458,-1.39209 2.294345,-0.19343 5.631351,-0.52594 8.661807,1.8219 2.204416,1.70788 2.949059,1.99489 4.528045,1.74527 2.587854,-0.40913 3.962464,0.42955 3.962464,2.41758 0,3.55026 -5.824068,3.74211 -10.788138,0.35536 -3.30381,-2.25403 -5.407183,-2.53208 -7.025714,-0.92877 -2.307505,2.28581 0.996138,6.58308 4.523642,5.88422 1.000826,-0.19828 2.067937,-0.0806 2.501582,0.27593 1.094165,0.89954 0.928101,2.56502 -0.321823,3.22767 -1.599101,0.84776 -5.688196,0.66564 -7.298249,-0.32506 z m 89.304239,0.23406 c -1.67208,-1.65635 -0.0789,-4.04446 2.30308,-3.45224 2.05311,0.51045 3.61619,-0.16512 4.55849,-1.97019 1.12929,-2.16328 0.60609,-3.30562 -0.68432,-3.98973 -1.88281,-0.99818 -3.13157,-1.02358 -6.18684,1.06089 -3.8203,2.60639 -8.20706,3.1933 -10.07054,1.34734 -1.46675,-1.45296 -1.47333,-1.97948 -0.0425,-3.39689 0.864,-0.85588 1.56525,-1.04552 2.92897,-0.79209 1.38854,0.25804 2.23241,0.0147 3.74088,-1.0788 3.97309,-2.88008 5.23647,-3.20417 8.65403,-2.22 6.10767,1.75885 8.14006,5.19097 5.84951,9.87812 -1.85272,3.79125 -3.95525,5.27613 -7.47075,5.27613 -1.60117,0 -3.21219,-0.29814 -3.58004,-0.66254 z M 88.873107,189.87594 c -8.826611,-3.25733 -11.083904,-10.79564 -6.860698,-22.91152 2.749203,-7.88712 2.652908,-9.81473 -0.490294,-9.81473 -2.85757,0 -3.880121,1.59035 -4.206914,6.54286 -0.250782,3.80064 -0.39881,4.24034 -1.478908,4.39282 -1.838251,0.25952 -2.979931,-1.82871 -2.979931,-5.45054 0,-6.06663 3.521345,-9.90206 9.091198,-9.90206 2.22408,0 2.978466,0.27684 4.287207,1.57327 2.903223,2.87594 2.839929,6.48847 -0.261371,14.91713 -1.933553,5.25497 -2.067948,10.21061 -0.35153,12.96174 2.121265,3.4 6.951536,4.83513 12.460643,3.7022 7.182071,-1.47698 10.705301,-6.55334 9.389741,-13.52899 -0.40968,-2.17228 -0.98384,-3.02992 -3.53838,-5.28534 -2.02691,-1.78957 -3.47526,-3.67304 -4.319616,-5.61734 -4.453772,-10.25575 0.893076,-25.07034 10.778976,-29.86549 9.66696,-4.68894 21.40581,-2.41116 27.78405,5.39117 3.98374,4.8732 5.70382,9.44905 5.71356,15.19954 0.007,4.11296 -0.20505,5.13652 -1.71547,8.28172 -0.94788,1.97381 -2.8059,4.79468 -4.12895,6.26859 -2.03454,2.26654 -2.44227,3.1187 -2.64375,5.52547 -0.47643,5.6911 1.86305,10.06522 6.4609,12.07995 3.27744,1.43613 10.21558,1.54267 12.82852,0.19697 4.36949,-2.25034 4.29651,-7.96835 -0.21172,-16.58887 -3.92198,-7.49951 -3.47252,-11.30598 1.60465,-13.58951 5.3862,-2.42252 10.77623,-0.34162 12.14346,4.68816 0.89405,3.28902 -0.22271,7.88816 -2.12373,8.74618 -1.19611,0.53986 -1.52551,0.47443 -2.198,-0.43661 -0.53846,-0.72946 -0.65699,-1.60395 -0.37123,-2.73872 0.71589,-2.84283 0.43961,-5.35118 -0.67861,-6.16116 -2.31662,-1.67803 -6.39733,-0.22141 -6.39733,2.28355 0,0.72357 1.12353,3.50457 2.49673,6.17997 4.33053,8.4372 4.6057,14.89478 0.81685,19.16947 -2.435,2.74724 -5.49484,3.77982 -11.12496,3.75425 -7.86709,-0.0357 -13.26014,-2.7697 -15.85656,-8.03838 -1.6943,-3.43808 -2.24117,-6.95999 -1.72105,-11.08374 0.33121,-2.62598 0.795,-3.55222 3.132,-6.25491 5.25562,-6.07804 6.63333,-11.4725 4.47559,-17.52428 -2.25413,-6.32217 -6.34009,-10.75482 -11.47973,-12.45377 -3.12545,-1.03314 -9.47018,-0.92707 -12.88007,0.21532 -6.22655,2.08604 -11.01423,8.89754 -11.70452,16.65217 -0.57399,6.44812 1.13189,10.60936 5.45835,13.31486 2.95294,1.84658 3.94012,4.31448 3.98635,9.96571 0.0323,3.95153 -0.16792,4.90669 -1.6205,7.72961 -1.79633,3.49096 -5.23707,6.2843 -9.05778,7.3535 -4.065778,1.13779 -9.663237,1.2093 -12.507173,0.15978 z"
     style="fill:#0b280b;stroke-width:0.55472857;fill-opacity:1"
     sodipodi:nodetypes="cssccccsssscccscsscccssscccsccscsssscssscccccscscccccccsccssscssscscsscssscscsscssccsscscsssscscssssccs" />
  <rect
     style="fill:none;stroke:none;stroke-width:1.05699372"
     x="-63.727894"
     y="-64.742355"
     width="0"
     height="0"
     pointer-events="all"
     id="rect892" />
  <rect
     style="fill:none;stroke:none;stroke-width:1.05699372"
     x="-63.727894"
     y="-64.742355"
     width="0"
     height="0"
     pointer-events="all"
     id="rect898" />
  <rect
     style="fill:none;stroke:none;stroke-width:1.05699372"
     x="-63.727894"
     y="-64.742355"
     width="0"
     height="0"
     pointer-events="all"
     id="rect904" />
  <path
     inkscape:connector-curvature="0"
     id="path1091"
     d="m 585.63049,383.02386 c 0.0258,-29.6354 0.15557,-49.53825 0.31149,-47.75919 3.3152,37.82435 26.00093,70.98689 59.84503,87.48286 7.47966,3.64566 12.91297,5.65235 20.86957,7.70777 4.88673,1.26239 12.72031,2.60875 17.49833,3.00746 2.10817,0.17592 -15.72515,0.29802 -47.59867,0.32589 l -50.9699,0.0446 z m 116.18328,50.45819 c 9.921,-0.855 20.21889,-3.17083 29.37793,-6.6066 5.03363,-1.88823 14.50805,-6.56921 18.86775,-9.32189 25.15825,-15.8847 42.50118,-40.792 48.41376,-69.53013 0.81345,-3.95376 1.70845,-10.35105 2.00959,-14.36411 0.0596,-0.79465 0.13366,21.41939 0.16452,49.36454 l 0.0561,50.80937 -50.9699,-0.0442 c -29.08099,-0.0252 -49.66002,-0.15705 -47.91974,-0.30703 z m 98.56857,-114.52128 c 0,-4.41374 -1.90108,-15.41115 -3.75254,-21.70779 -0.62878,-2.13839 -1.1327,-4.16166 -1.11984,-4.49615 0.0129,-0.33449 -0.55976,-2.19295 -1.2725,-4.12989 -7.39111,-20.08616 -20.50007,-37.4189 -37.86334,-50.06313 -9.94043,-7.2388 -22.41441,-13.24031 -34.3311,-16.51746 -6.95812,-1.91352 -15.07601,-3.31854 -21.67406,-3.75129 -0.88295,-0.0579 21.3311,-0.13133 49.36455,-0.16316 l 50.9699,-0.0579 v 51.2107 c 0,28.16589 -0.0722,51.21071 -0.16054,51.21071 -0.0883,0 -0.16053,-0.69061 -0.16053,-1.53467 z m -214.73991,-49.91684 -0.0561,-50.9699 50.9699,0.0446 c 31.87352,0.0279 49.70684,0.14997 47.59867,0.32589 -1.85418,0.15472 -5.55097,0.64291 -8.2151,1.08486 -18.67158,3.09743 -35.42014,10.57983 -50.38022,22.50732 -4.53027,3.61193 -12.39867,11.48033 -16.0106,16.01059 -13.93852,17.48243 -22.07936,38.23403 -23.74264,60.52174 -0.0593,0.79465 -0.13307,-21.49163 -0.16392,-49.52508 z"
     style="fill:#fefefe;stroke-width:0.32107025" />
  <path
     inkscape:connector-curvature="0"
     id="path1087"
     d="m 694.50364,323.38507 c 0,-0.61806 0.0661,-0.8709 0.14684,-0.56187 0.0807,0.30903 0.0807,0.81471 0,1.12374 -0.0808,0.30903 -0.14684,0.0562 -0.14684,-0.56187 z m 0.32107,-4.17391 c 0,-0.61807 0.0661,-0.87091 0.14684,-0.56188 0.0808,0.30903 0.0808,0.81472 0,1.12375 -0.0808,0.30903 -0.14684,0.0562 -0.14684,-0.56187 z m 0.32107,-3.85285 c 0,-0.61806 0.0661,-0.8709 0.14684,-0.56187 0.0808,0.30903 0.0808,0.81471 0,1.12375 -0.0808,0.30903 -0.14684,0.0562 -0.14684,-0.56188 z m 0.32108,-4.17391 c 0,-0.61806 0.0661,-0.8709 0.14683,-0.56187 0.0808,0.30903 0.0808,0.81471 0,1.12374 -0.0808,0.30903 -0.14683,0.0562 -0.14683,-0.56187 z m 0.32107,-4.17391 c 0,-0.61806 0.0661,-0.87091 0.14683,-0.56188 0.0808,0.30903 0.0808,0.81472 0,1.12375 -0.0808,0.30903 -0.14683,0.0562 -0.14683,-0.56187 z m 0.32107,-4.17392 c 0,-0.61806 0.0661,-0.8709 0.14683,-0.56187 0.0808,0.30903 0.0808,0.81472 0,1.12375 -0.0808,0.30903 -0.14683,0.0562 -0.14683,-0.56188 z m 0.32107,-4.17391 c 0,-0.61806 0.0661,-0.8709 0.14683,-0.56187 0.0808,0.30903 0.0808,0.81471 0,1.12374 -0.0808,0.30903 -0.14683,0.0562 -0.14683,-0.56187 z m 0.32107,-3.85284 c 0,-0.61806 0.0661,-0.87091 0.14683,-0.56188 0.0808,0.30903 0.0808,0.81472 0,1.12375 -0.0808,0.30903 -0.14683,0.0562 -0.14683,-0.56187 z m 0.32107,-4.17392 c 0,-0.61806 0.0661,-0.8709 0.14683,-0.56187 0.0808,0.30903 0.0808,0.81472 0,1.12375 -0.0808,0.30903 -0.14683,0.0562 -0.14683,-0.56188 z m 0.32107,-4.17391 c 0,-0.61806 0.0661,-0.8709 0.14683,-0.56187 0.0808,0.30903 0.0808,0.81471 0,1.12374 -0.0808,0.30903 -0.14683,0.0562 -0.14683,-0.56187 z m 0.32107,-4.17391 c 0,-0.61806 0.0661,-0.87091 0.14683,-0.56188 0.0808,0.30903 0.0808,0.81472 0,1.12375 -0.0808,0.30903 -0.14683,0.0562 -0.14683,-0.56187 z m 0.32107,-4.17392 c 0,-0.61806 0.0661,-0.8709 0.14683,-0.56187 0.0808,0.30903 0.0808,0.81472 0,1.12375 -0.0808,0.30903 -0.14683,0.0562 -0.14683,-0.56188 z m 0.32107,-3.85284 c 0,-0.61806 0.0661,-0.8709 0.14683,-0.56187 0.0808,0.30903 0.0808,0.81471 0,1.12374 -0.0808,0.30903 -0.14683,0.0562 -0.14683,-0.56187 z m 0.32107,-4.17391 c 0,-0.61806 0.0661,-0.8709 0.14683,-0.56187 0.0808,0.30903 0.0808,0.81471 0,1.12374 -0.0808,0.30903 -0.14683,0.0562 -0.14683,-0.56187 z m 0.32107,-4.17391 c 0,-0.61806 0.0661,-0.87091 0.14683,-0.56188 0.0808,0.30903 0.0808,0.81472 0,1.12375 -0.0808,0.30903 -0.14683,0.0562 -0.14683,-0.56187 z m 0.32107,-4.17392 c 0,-0.61806 0.0661,-0.8709 0.14683,-0.56187 0.0808,0.30903 0.0808,0.81472 0,1.12375 -0.0808,0.30903 -0.14683,0.0562 -0.14683,-0.56188 z m -89.97416,-2.08695 c 0.21983,-0.26489 0.47194,-0.48161 0.56023,-0.48161 0.0883,0 -0.0193,0.21672 -0.23916,0.48161 -0.21983,0.26488 -0.47194,0.4816 -0.56023,0.4816 -0.0883,0 0.0193,-0.21672 0.23916,-0.4816 z m 1.28428,-1.60536 c 0.21983,-0.26488 0.47194,-0.4816 0.56023,-0.4816 0.0883,0 -0.0193,0.21672 -0.23916,0.4816 -0.21983,0.26489 -0.47194,0.48161 -0.56023,0.48161 -0.0883,0 0.0193,-0.21672 0.23916,-0.48161 z m 89.01095,-0.4816 c 0,-0.61806 0.0661,-0.8709 0.14683,-0.56187 0.0808,0.30903 0.0808,0.81471 0,1.12374 -0.0808,0.30903 -0.14683,0.0562 -0.14683,-0.56187 z m -87.24506,-1.60535 c 0.31962,-0.35318 0.65337,-0.64214 0.74166,-0.64214 0.0883,0 -0.10097,0.28896 -0.42059,0.64214 -0.31962,0.35318 -0.65337,0.64214 -0.74167,0.64214 -0.0883,0 0.10098,-0.28896 0.4206,-0.64214 z m 87.56613,-2.24749 c 0,-0.61806 0.0661,-0.87091 0.14683,-0.56188 0.0808,0.30903 0.0808,0.81472 0,1.12375 -0.0808,0.30903 -0.14683,0.0562 -0.14683,-0.56187 z m -84.83704,-0.80268 c 0.59905,-0.61806 1.16142,-1.12374 1.24972,-1.12374 0.0883,0 -0.3296,0.50568 -0.92865,1.12374 -0.59904,0.61806 -1.16141,1.12375 -1.24971,1.12375 -0.0883,0 0.3296,-0.50569 0.92864,-1.12375 z m 85.15811,-3.37124 c 0,-0.61806 0.0661,-0.8709 0.14683,-0.56187 0.0808,0.30903 0.0808,0.81472 0,1.12375 -0.0807,0.30903 -0.14683,0.0562 -0.14683,-0.56188 z m -79.37884,-2.40802 c 0.59904,-0.61806 1.16141,-1.12375 1.24971,-1.12375 0.0883,0 -0.3296,0.50569 -0.92864,1.12375 -0.59905,0.61806 -1.16142,1.12374 -1.24971,1.12374 -0.0883,0 0.32959,-0.50568 0.92864,-1.12374 z m 79.69991,-1.76589 c 0,-0.61806 0.0661,-0.8709 0.14683,-0.56187 0.0808,0.30903 0.0808,0.81471 0,1.12374 -0.0808,0.30903 -0.14683,0.0562 -0.14683,-0.56187 z m -76.64974,-0.96321 c 0.31962,-0.35318 0.65337,-0.64214 0.74166,-0.64214 0.0883,0 -0.10097,0.28896 -0.42059,0.64214 -0.31963,0.35318 -0.65338,0.64214 -0.74167,0.64214 -0.0883,0 0.10097,-0.28896 0.4206,-0.64214 z m 76.97081,-3.2107 c 0,-0.61806 0.0661,-0.87091 0.14683,-0.56188 0.0808,0.30903 0.0808,0.81472 0,1.12375 -0.0808,0.30903 -0.14683,0.0562 -0.14683,-0.56187 z m 0.32107,-4.17392 c 0,-0.61806 0.0661,-0.8709 0.14683,-0.56187 0.0808,0.30903 0.0808,0.81472 0,1.12375 -0.0807,0.30903 -0.14683,0.0562 -0.14683,-0.56188 z m 0.32107,-3.85284 c 0,-0.61806 0.0661,-0.8709 0.14683,-0.56187 0.0808,0.30903 0.0808,0.81471 0,1.12374 -0.0808,0.30903 -0.14683,0.0562 -0.14683,-0.56187 z m 0.32107,-4.17391 c 0,-0.61806 0.0661,-0.8709 0.14684,-0.56187 0.0808,0.30903 0.0808,0.81471 0,1.12374 -0.0808,0.30903 -0.14684,0.0562 -0.14684,-0.56187 z m 0.32107,-4.17391 c 0,-0.61807 0.0661,-0.87091 0.14684,-0.56188 0.0807,0.30903 0.0807,0.81472 0,1.12375 -0.0808,0.30903 -0.14684,0.0562 -0.14684,-0.56187 z m 0.32107,-4.17392 c 0,-0.61806 0.0661,-0.8709 0.14684,-0.56187 0.0808,0.30903 0.0808,0.81471 0,1.12374 -0.0808,0.30903 -0.14684,0.0562 -0.14684,-0.56187 z m -27.59957,-0.51505 c 0.10668,-0.10669 0.38361,-0.11809 0.61538,-0.0254 0.25613,0.1025 0.18005,0.17858 -0.19398,0.19398 -0.33846,0.014 -0.52809,-0.0619 -0.4214,-0.16863 z m 1.92642,-0.32107 c 0.10669,-0.10669 0.38361,-0.11809 0.61538,-0.0254 0.25613,0.1025 0.18005,0.17858 -0.19398,0.19398 -0.33846,0.0139 -0.52809,-0.0619 -0.4214,-0.16863 z m 2.08027,-0.33973 c 0.22073,-0.0891 0.58194,-0.0891 0.80267,0 0.22074,0.0891 0.0401,0.16195 -0.40134,0.16195 -0.44147,0 -0.62207,-0.0729 -0.40133,-0.16195 z m 2.56856,-0.32107 c 0.22073,-0.0891 0.58194,-0.0891 0.80267,0 0.22074,0.0891 0.0401,0.16195 -0.40133,0.16195 -0.44148,0 -0.62208,-0.0729 -0.40134,-0.16195 z m 3.05017,-0.32975 c 0.30903,-0.0808 0.81471,-0.0808 1.12374,0 0.30903,0.0808 0.0562,0.14683 -0.56187,0.14683 -0.61806,0 -0.8709,-0.0661 -0.56187,-0.14683 z m 6.74247,-0.33881 c 1.54515,-0.0589 4.07358,-0.0589 5.61873,0 1.54515,0.0589 0.28094,0.10701 -2.80936,0.10701 -3.09031,0 -4.35452,-0.0482 -2.80937,-0.10701 z"
     style="fill:#f19e1b;stroke-width:0.32107025" />
  <path
     style="fill:#0b280b;fill-opacity:1;stroke:#0b2817;stroke-width:2.64566922;stroke-miterlimit:4;stroke-dasharray:none;stroke-opacity:1"
     inkscape:connector-curvature="0"
     d="M 41.16446,131.18308 120.96325,106.657 c 8.21862,4.49262 8.69846,13.20504 3.6332,18.85874 z"
     pointer-events="all"
     id="path908"
        sodipodi:nodetypes="cccc" >
          <animateTransform attributeName="transform" attributeType="XML" type="rotate" from="0 119.7692 116.98061" to="197 119.7692 116.98061" dur="2s" repeatCount="indefinite" />
        </path>
  <circle
     style="opacity:1;fill:#e5ffd5;fill-opacity:1;fill-rule:nonzero;stroke:#0b2817;stroke-width:2.64566929;stroke-linecap:butt;stroke-linejoin:miter;stroke-miterlimit:4;stroke-dasharray:none;stroke-opacity:1"
     id="path863"
     cx="119.7692"
     cy="116.98061"
     r="3.4126911" />
  <circle
     r="107.50908"
     cy="120"
     cx="120"
     id="circle882"
     style="opacity:1;fill:none;fill-opacity:1;fill-rule:nonzero;stroke:#000004;stroke-width:1.88976378;stroke-linecap:butt;stroke-linejoin:miter;stroke-miterlimit:4;stroke-dasharray:none;stroke-opacity:1" />
</svg>
